# xmcd
#
# Track frame offsets:
#	182
#	16357
#	60250
#	95055
#	124435
#	155172
#	204330
#	241945
#	291057
#
# Disc length: 4307 seconds
#
# Revision: 12
# Processed by: cddbd v1.5.2PL0 Copyright (c) Steve Scherf et al.
# Submitted via: EZCDAudioConverter 3.0.6.1
#
DISCID=7b10d109
DTITLE=Pet Shop Boys - New York City Boy - US CD Maxi-Single
DYEAR=1999
DGENRE=Pop
TTITLE0=New York City Boy (Radio Edit)
TTITLE1=New York City Boy (The Superchumbo Uptown Mix)
TTITLE2=New York City Boy (The Superchumbo Downtown Dub)
TTITLE3=New York City Boy (The Almighty Definitive Mix)
TTITLE4=New York City Boy (The Almighty Man On A Mission Mix)
TTITLE5=New York City Boy (The Thunderpuss 2000 Club Mix)
TTITLE6=New York City Boy (The Thunderdub)
TTITLE7=New York City Boy (The Morales Club Mix)
TTITLE8=New York City Boy (The Lange Mix)
EXTD=
EXTT0=
EXTT1=
EXTT2=
EXTT3=
EXTT4=
EXTT5=
EXTT6=
EXTT7=
EXTT8=
PLAYORDER=
